<svg xmlns="http://www.w3.org/2000/svg" width="40" height="40" viewBox="0 0 40 40">
    <path fill="black" d="M20.2,25.2a.789.789,0,0,1,.8-.8.736.736,0,0,1,.8.8.8.8,0,1,1-1.6,0ZM23,26a.789.789,0,0,0,.8-.8.8.8,0,1,0-1.6,0A.789.789,0,0,0,23,26Zm7.8-4v6a.789.789,0,0,1-.8.8H10a.789.789,0,0,1-.8-.8V22a.764.764,0,0,1,.2-.5l5.8-5.6V12a.789.789,0,0,1,.8-.8h8a.789.789,0,0,1,.8.8v3.8l5.8,5.6A1.421,1.421,0,0,1,30.8,22Zm-20,1.2v4H29.3v-4Zm12.7-6.4H16.4l-5.1,5H28.6Zm-.3-1.6V12.7H16.7v2.5ZM19,26a.789.789,0,0,0,.8-.8.8.8,0,1,0-1.6,0A.789.789,0,0,0,19,26Zm-2,0a.789.789,0,0,0,.8-.8.8.8,0,0,0-1.6,0A.789.789,0,0,0,17,26Z"/>
</svg>
